<svg width="20" height="20" viewBox="0 0 20 20" fill="none" xmlns="http://www.w3.org/2000/svg">
<path d="M9.75254 4.67992C9.77754 3.92575 9.98421 2.81575 10.7067 2.08658C11.3775 1.40908 12.1942 1.07908 12.7025 0.928251C12.7473 0.914233 12.7948 0.911317 12.841 0.919756C12.8871 0.928195 12.9305 0.947734 12.9674 0.976688C13.0043 1.00564 13.0336 1.04314 13.0528 1.08595C13.072 1.12876 13.0805 1.1756 13.0775 1.22242C13.0442 1.94408 12.8542 3.02075 12.3642 3.59742C11.9025 4.14075 11.1609 4.86075 10.0734 4.98242C10.0317 4.98692 9.98956 4.98234 9.94984 4.969C9.91011 4.95565 9.87375 4.93385 9.84325 4.9051C9.81276 4.87635 9.78886 4.84133 9.7732 4.80246C9.75754 4.76358 9.75049 4.72178 9.75254 4.67992Z" fill="#1E1E1E"/>
<path d="M11.6142 18.4748C12.1367 18.6748 12.6642 18.8765 13.1417 18.8765C14.1642 18.8765 17.14 16.5181 17.2467 14.0698C17.2475 14.0081 17.2312 13.9474 17.1995 13.8944C17.1679 13.8415 17.1222 13.7983 17.0675 13.7698C16.3108 13.3465 15.0742 12.2915 15.0317 10.7573C14.9817 8.96897 15.8792 7.54897 16.5583 6.96147C16.7117 6.82897 16.7642 6.59564 16.6275 6.4473C16.0092 5.7723 14.7658 4.84314 13.6308 4.86564C12.8058 4.8823 12.0617 5.19064 11.4225 5.45397C10.9333 5.65647 10.5058 5.83314 10.1508 5.83314C9.815 5.83314 9.41167 5.65814 8.94833 5.45564C8.325 5.18397 7.59333 4.86564 6.77333 4.86564C5.25333 4.86564 2.25 6.12647 2.25 10.9923C2.25 13.5715 4.9125 18.9448 7.16 18.8765C7.645 18.8765 8.16333 18.6765 8.67833 18.4765C9.185 18.2798 9.6875 18.0848 10.1508 18.0848C10.5983 18.0848 11.1033 18.279 11.6142 18.4748Z" fill="#1E1E1E"/>
</svg>
