<svg width="16" height="16" viewBox="0 0 16 16" fill="none" xmlns="http://www.w3.org/2000/svg">
<path d="M2.04283 5.00659C2.59775 3.90228 3.44871 2.97396 4.5007 2.32529C5.55268 1.67663 6.76427 1.33317 8.00016 1.33325C9.79683 1.33325 11.3062 1.99392 12.4602 3.06992L10.5488 4.98192C9.8575 4.32125 8.97883 3.98459 8.00016 3.98459C6.2635 3.98459 4.7935 5.15792 4.27016 6.73325C4.13683 7.13325 4.06083 7.55992 4.06083 7.99992C4.06083 8.43992 4.13683 8.86659 4.27016 9.26659C4.79416 10.8426 6.2635 12.0153 8.00016 12.0153C8.89683 12.0153 9.66016 11.7786 10.2575 11.3786C10.6038 11.1506 10.9003 10.8547 11.129 10.5089C11.3577 10.1631 11.5139 9.77449 11.5882 9.36659H8.00016V6.78792H14.2788C14.3575 7.22392 14.4002 7.67859 14.4002 8.15125C14.4002 10.1819 13.6735 11.8913 12.4122 13.0513C11.3095 14.0699 9.80016 14.6666 8.00016 14.6666C7.12459 14.6669 6.25752 14.4947 5.44853 14.1598C4.63953 13.8249 3.90446 13.3339 3.28534 12.7147C2.66621 12.0956 2.17516 11.3606 1.84025 10.5516C1.50535 9.74256 1.33315 8.8755 1.3335 7.99992C1.3335 6.92392 1.59083 5.90659 2.04283 5.00659Z" fill="#484848"/>
</svg>
