<?xml version="1.0" encoding="UTF-8"?>
<svg version="1.1" xmlns="http://www.w3.org/2000/svg" width="2048" height="2048">
<path d="M0 0 C675.84 0 1351.68 0 2048 0 C2048 675.84 2048 1351.68 2048 2048 C1372.16 2048 696.32 2048 0 2048 C0 1372.16 0 696.32 0 0 Z " fill="#DE4A09" transform="translate(0,0)"/>
<path d="M0 0 C169.29 0 338.58 0 513 0 C513 168.3 513 336.6 513 510 C343.71 510 174.42 510 0 510 C0 341.7 0 173.4 0 0 Z " fill="#FDFDFD" transform="translate(1169,295)"/>
<path d="M0 0 C2.55296968 -0.00743695 5.10593231 -0.01805614 7.65887451 -0.03204346 C33.50067376 -0.16105585 33.50067376 -0.16105585 44.99069214 2.17623901 C45.73093628 2.31167114 46.47118042 2.44710327 47.2338562 2.5866394 C62.68181085 5.57712588 78.32303736 11.81057955 90.99069214 21.17623901 C91.8994812 21.84139526 92.80827026 22.50655151 93.74459839 23.19186401 C110.74461289 36.33791139 122.47974994 55.28841125 126.30319214 76.48873901 C129.04044024 98.09720721 125.39522503 119.44766326 111.99069214 137.17623901 C101.51527806 149.55627383 89.10267056 154.63765804 73.99069214 159.17623901 C75.40608276 159.50494995 75.40608276 159.50494995 76.85006714 159.84030151 C89.42507144 162.89103246 100.17683553 167.52220182 109.99069214 176.17623901 C110.74092651 176.83237183 111.49116089 177.48850464 112.26412964 178.16452026 C126.32500135 191.28960018 134.67206613 210.66985002 135.49459839 229.79342651 C135.55517365 232.54672582 135.5645942 235.29736455 135.55319214 238.05123901 C135.55270874 238.77245941 135.55222534 239.49367981 135.55172729 240.23675537 C135.46165626 259.65591039 130.64104076 276.34026735 120.99069214 293.17623901 C120.44799683 294.15592651 119.90530151 295.13561401 119.34616089 296.14498901 C108.88392388 313.86206191 91.59378857 328.64187354 71.99069214 335.17623901 C69.74599977 335.26852678 67.49858699 335.29816884 65.2519989 335.29649353 C64.56505951 335.29734955 63.87812012 335.29820557 63.17036438 335.29908752 C60.85629704 335.30074556 58.54230172 335.29521446 56.22824097 335.2897644 C54.54580786 335.28945815 52.86337463 335.28959142 51.18094158 335.29012966 C46.66857775 335.29035576 42.15624034 335.28455278 37.64388275 335.27751923 C33.41227636 335.27183144 29.18067645 335.27155649 24.94906616 335.27084351 C12.56710464 335.26559264 0.18514806 335.25163154 -12.19680786 335.23873901 C-53.68399536 335.20780151 -53.68399536 335.20780151 -96.00930786 335.17623901 C-96.00930786 225.28623901 -96.00930786 115.39623901 -96.00930786 2.17623901 C-63.99394077 0.89562433 -32.03721295 0.08577935 0 0 Z " fill="#FDFDFD" transform="translate(873.0093078613281,1163.8237609863281)"/>
<path d="M0 0 C1.92585938 0.43505859 1.92585938 0.43505859 3.890625 0.87890625 C23.80668262 5.77596157 43.81846984 14.43046827 55.2890625 32.46484375 C60.68998878 41.4727787 64.47675534 49.39790187 64.36076355 59.93444824 C64.36332682 60.79882964 64.3658901 61.66321103 64.36853105 62.5537858 C64.3734467 65.43123324 64.35701281 68.30814831 64.34057617 71.18554688 C64.33972942 73.25566597 64.34020598 75.32578597 64.34190369 77.39590454 C64.34276318 83.00276933 64.32514465 88.60944095 64.30418181 94.21626091 C64.2854075 100.0805653 64.28366397 105.94487429 64.28010559 111.8092041 C64.27078736 122.90834446 64.24617651 134.00739601 64.21605712 145.10649729 C64.18250626 157.74488208 64.16602536 170.38327116 64.15097082 183.02168941 C64.11962681 209.01452017 64.06461742 235.0072292 64 261 C44.53 261 25.06 261 5 261 C4.67 250.77 4.34 240.54 4 230 C1.69 232.31 -0.62 234.62 -3 237 C-22.79223337 252.82857136 -46.69675514 261.14817148 -71.9375 261.25 C-73.80245117 261.2809375 -73.80245117 261.2809375 -75.70507812 261.3125 C-98.07288854 261.40545713 -117.95492679 253.34926224 -134.12890625 237.9765625 C-152.02173065 219.13832468 -155.69353848 194.59853342 -155.30859375 169.59765625 C-154.69388587 151.6027845 -147.73519241 134.89488134 -135 122 C-108.97079523 98.70272343 -73.05296838 95.40984249 -39.65234375 95.71875 C-36.2108281 95.75035979 -32.7697727 95.7597884 -29.328125 95.765625 C-27.0989528 95.77478242 -24.86978519 95.78515413 -22.640625 95.796875 C-21.63211487 95.80112488 -20.62360474 95.80537476 -19.58453369 95.80975342 C-13.01242101 95.8751169 -6.5354664 96.30748305 0 97 C-0.05723023 93.85295518 -0.147874 90.70842473 -0.25 87.5625 C-0.26417969 86.68400391 -0.27835938 85.80550781 -0.29296875 84.90039062 C-0.63217113 75.70800624 -3.66368403 68.51506514 -9.9609375 61.7890625 C-21.68392534 51.50337585 -38.3453368 52.15102926 -53 53 C-74.93915767 54.95023598 -95.97421611 61.16097113 -116.97265625 67.49609375 C-118.13667969 67.84522827 -118.13667969 67.84522827 -119.32421875 68.20141602 C-120.77503922 68.63802309 -122.22437296 69.07961374 -123.671875 69.52709961 C-126.98244856 70.52531023 -129.4973437 71 -133 71 C-133 54.17 -133 37.34 -133 20 C-91.69953542 2.6103307 -44.93468359 -10.51182859 0 0 Z " fill="#FDFDFC" transform="translate(1202,1238)"/>
<path d="M0 0 C1.08686096 -0.00018127 1.08686096 -0.00018127 2.19567871 -0.00036621 C21.59925983 0.0451647 41.346725 1.92027585 59.75 8.375 C61.44908081 8.95483145 63.14831266 9.53422039 64.84765625 10.11328125 C71.53417309 12.41236843 78.18417264 14.74866906 84.75 17.375 C84.75 31.895 84.75 46.415 84.75 61.375 C75.75 59.375 75.75 59.375 71.4375 58.0625 C36.95573243 47.59104298 -6.89906257 38.44435369 -40.4621582 55.953125 C-53.8776428 63.33961058 -62.74505241 73.16010259 -70.25 86.375 C-70.74113281 87.22835938 -71.23226562 88.08171875 -71.73828125 88.9609375 C-78.78733022 102.09879347 -81.84846357 116.79296299 -84.25 131.375 C-84.42950195 132.4158374 -84.60900391 133.4566748 -84.79394531 134.52905273 C-86.59086537 146.1471535 -86.64560447 157.70394299 -86.625 169.4375 C-86.62512085 170.49348389 -86.6252417 171.54946777 -86.62536621 172.63745117 C-86.59682312 190.18945814 -85.60523543 207.11529158 -82.25 224.375 C-82.08983398 225.20741211 -81.92966797 226.03982422 -81.76464844 226.89746094 C-77.43174498 248.39638955 -68.8342637 269.505996 -50.68359375 282.84375 C-24.73390038 299.17164695 10.12765244 289.39724501 37.75 284.375 C38.245 229.925 38.245 229.925 38.75 174.375 C21.59 174.375 4.43 174.375 -13.25 174.375 C-14.075 168.3525 -14.9 162.33 -15.75 156.125 C-16.01103516 154.22975586 -16.27207031 152.33451172 -16.54101562 150.38183594 C-16.74630534 148.87437776 -16.95139687 147.36689257 -17.15625 145.859375 C-17.26420898 145.08094238 -17.37216797 144.30250977 -17.48339844 143.50048828 C-17.94607729 140.07886803 -18.25 136.83538059 -18.25 133.375 C19.04 133.375 56.33 133.375 94.75 133.375 C94.75 195.085 94.75 256.795 94.75 320.375 C77.26218887 326.20427038 59.27899708 329.61158539 41.125 332.625 C40.00380264 332.81190903 40.00380264 332.81190903 38.85995483 333.00259399 C-5.49038283 340.34789201 -58.63063097 346.8235893 -97.46484375 319.078125 C-100.16070835 316.93326702 -102.71966619 314.71166433 -105.25 312.375 C-105.95253906 311.75238281 -106.65507812 311.12976562 -107.37890625 310.48828125 C-134.79402019 284.89726491 -142.87930507 242.01350075 -145.25 206.375 C-145.30639648 205.62138184 -145.36279297 204.86776367 -145.42089844 204.09130859 C-145.85658268 198.18894715 -146.09232726 192.29095484 -146.25 186.375 C-146.28399902 185.14007812 -146.31799805 183.90515625 -146.35302734 182.6328125 C-147.03457796 155.22468217 -146.18401249 126.8217083 -138.25 100.375 C-137.94521729 99.32747559 -137.94521729 99.32747559 -137.63427734 98.25878906 C-128.39611106 66.8945591 -111.00371948 39.38586788 -83.25 21.375 C-82.54230469 20.88644531 -81.83460938 20.39789062 -81.10546875 19.89453125 C-69.53203631 12.33430305 -55.85889377 7.71816085 -42.5 4.5 C-41.71069092 4.30913818 -40.92138184 4.11827637 -40.1081543 3.92163086 C-26.86358531 0.95434188 -13.5357428 -0.03522691 0 0 Z " fill="#FDFDFD" transform="translate(351.25,1163.625)"/>
<path d="M0 0 C2.48631191 2.16842728 4.78837625 4.41584009 7.06640625 6.80078125 C8.10667969 7.82945313 8.10667969 7.82945313 9.16796875 8.87890625 C18.95656448 19.08323384 24.27838244 31.38119303 28.06640625 44.80078125 C28.41223188 46.02189102 28.75805752 47.24300079 29.11436272 48.50111389 C30.16926531 52.77023067 30.3416202 56.78463445 30.30691528 61.16577148 C30.30862413 61.96889959 30.31033298 62.7720277 30.31209362 63.59949303 C30.31536729 66.26954674 30.30442009 68.93934474 30.29345703 71.609375 C30.29289246 73.53171279 30.29321038 75.45405101 30.29434204 77.37638855 C30.29491475 82.58033232 30.2831736 87.78418348 30.26919413 92.98810577 C30.2566732 98.43200712 30.25551519 103.8759107 30.25314331 109.31982422 C30.24693255 119.62208311 30.23052718 129.92429944 30.21044433 140.22653961 C30.18807277 151.95805583 30.17708874 163.6895741 30.16705346 175.42110634 C30.14616061 199.54769366 30.10948939 223.67422265 30.06640625 247.80078125 C7.95640625 247.80078125 -14.15359375 247.80078125 -36.93359375 247.80078125 C-36.93770264 242.27924316 -36.94181152 236.75770508 -36.94604492 231.06884766 C-36.96324023 212.8281696 -37.00748678 194.58763132 -37.06568432 176.34704018 C-37.10030968 165.28749011 -37.12568663 154.22806438 -37.12915039 143.16845703 C-37.13219368 133.52677897 -37.15273341 123.88532246 -37.19411832 114.24372995 C-37.2154167 109.14044053 -37.22806512 104.03746585 -37.21974754 98.93413162 C-37.21218748 94.12574456 -37.22810967 89.31799418 -37.2616539 84.50972366 C-37.26986361 82.74980546 -37.26966502 80.98982366 -37.26019096 79.2299118 C-37.2105865 68.99824167 -37.3763181 59.94659393 -44.61217022 51.94443703 C-53.49200585 43.36278261 -65.80300059 41.44146719 -77.64453125 41.49829102 C-99.19256741 42.03549275 -124.12170603 51.02340438 -140.93359375 64.80078125 C-141.459203 65.17765737 -141.98481226 65.55453348 -142.52634907 65.94283009 C-144.66391787 68.76501054 -144.35589443 71.66978951 -144.33232117 75.07096863 C-144.33896799 75.81673843 -144.34561482 76.56250824 -144.35246307 77.33087713 C-144.37115742 79.83685192 -144.36848352 82.34235197 -144.3659668 84.84838867 C-144.37498005 86.64191872 -144.38530618 88.43544259 -144.39685059 90.22895813 C-144.4244981 95.10467417 -144.4337156 99.98027359 -144.43970466 104.85605788 C-144.4490682 109.94903318 -144.47526989 115.04192067 -144.49971008 120.13484192 C-144.54343448 129.78203415 -144.57194493 139.4292094 -144.59503347 149.07647067 C-144.62205334 160.05824382 -144.66596679 171.03992888 -144.71132219 182.02163923 C-144.80425358 204.6146517 -144.87366503 227.20765547 -144.93359375 249.80078125 C-166.71359375 249.80078125 -188.49359375 249.80078125 -210.93359375 249.80078125 C-210.93359375 162.68078125 -210.93359375 75.56078125 -210.93359375 -14.19921875 C-190.80359375 -14.19921875 -170.67359375 -14.19921875 -149.93359375 -14.19921875 C-149.60359375 -4.29921875 -149.27359375 5.60078125 -148.93359375 15.80078125 C-146.70609375 14.50140625 -144.47859375 13.20203125 -142.18359375 11.86328125 C-124.93742103 2.04445061 -106.36240541 -5.82369894 -87.18359375 -10.94921875 C-86.43972412 -11.14805664 -85.69585449 -11.34689453 -84.92944336 -11.55175781 C-56.562359 -18.79336052 -24.25260721 -18.18138197 0 0 Z " fill="#FDFDFC" transform="translate(1533.93359375,1252.19921875)"/>
<path d="M0 0 C79.86 0 159.72 0 242 0 C240.91201269 18.49578434 240.91201269 18.49578434 239.60546875 24.83203125 C238.56944079 30.25279689 237.83505913 35.72239027 237.05322266 41.18481445 C236.93124512 42.02101318 236.80926758 42.85721191 236.68359375 43.71875 C236.57587646 44.47091797 236.46815918 45.22308594 236.35717773 45.99804688 C236 48 236 48 235 51 C208.93 51 182.86 51 156 51 C156 145.05 156 239.1 156 336 C134.88 336 113.76 336 92 336 C92 242.61 92 149.22 92 53 C61.64 53 31.28 53 0 53 C0 35.51 0 18.02 0 0 Z " fill="#FDFDFC" transform="translate(480,1164)"/>
<path d="M0 0 C21.12 0 42.24 0 64 0 C64 110.88 64 221.76 64 336 C42.88 336 21.76 336 0 336 C0 225.12 0 114.24 0 0 Z " fill="#FDFCFC" transform="translate(1612,1164)"/>
<path d="M0 0 C1.07461739 0.00539291 1.07461739 0.00539291 2.17094421 0.01089478 C2.92211517 0.01074875 3.67328613 0.01060272 4.44721985 0.01045227 C6.94166404 0.01115153 9.43603448 0.01894452 11.9304657 0.02676392 C13.65539509 0.02862805 15.38032501 0.03005197 17.10525513 0.03105164 C21.65418448 0.03487719 26.20308211 0.04470779 30.7519989 0.05575562 C35.39025951 0.06596893 40.02852522 0.07054908 44.66679382 0.07559204 C53.77422967 0.08633003 62.88164192 0.1034069 71.98905945 0.12442017 C71.03712871 1.56571952 70.08341469 3.00584119 69.12895203 4.44546509 C68.59804459 5.24755905 68.06713715 6.04965302 67.5201416 6.87605286 C65.71355312 9.52899638 63.75038581 11.98816475 61.67655945 14.43692017 C57.85857519 19.03240784 54.23994029 23.73228448 50.67655945 28.52676392 C47.29689103 33.06655846 43.85909832 37.56205569 40.42655945 42.06192017 C39.7407782 42.96144409 39.05499695 43.86096802 38.34843445 44.78775024 C34.87622221 49.34141192 31.40189646 53.89345557 27.92655945 58.44473267 C21.36739654 67.03900191 14.83483359 75.65085669 8.36405945 84.31192017 C1.81512043 93.07590327 -4.87011683 101.72798044 -11.62324524 110.33535767 C-12.08118469 110.92574829 -12.53912415 111.51613892 -13.01094055 112.12442017 C-13.58489563 112.75606079 -14.15885071 113.38770142 -14.75019836 114.03848267 C-16.19684521 116.033821 -16.19684521 116.033821 -16.03730774 118.33682251 C-14.49163314 122.53485119 -12.07410232 126.02405798 -9.58906555 129.72598267 C-9.02608765 130.57796234 -8.46310974 131.42994202 -7.8830719 132.30773926 C-6.01691434 135.12695316 -4.13910648 137.93819482 -2.26094055 140.74942017 C-0.94334949 142.73409195 0.37369949 144.71912371 1.69023132 146.70449829 C11.73070957 161.82439512 21.88457899 176.86806062 32.05888367 191.89810181 C42.34822709 207.10986978 52.46753955 222.43103217 62.53788757 237.78848267 C63.68554449 239.5372656 64.83332618 241.28596666 65.98124695 243.03457642 C66.51840332 243.85378571 67.05555969 244.672995 67.60899353 245.51702881 C70.93667629 250.57599447 74.33967074 255.55741243 77.91923523 260.4425354 C78.98905945 262.12442017 78.98905945 262.12442017 78.98905945 264.12442017 C69.85313376 264.3565543 60.71822888 264.53401239 51.57999325 264.64254189 C47.33613573 264.69464413 43.09430125 264.76524787 38.85160828 264.8788147 C34.75357926 264.98781735 30.65748977 265.04732875 26.55812263 265.0731926 C24.99779786 265.09161124 23.43757451 265.12758482 21.87808037 265.18172073 C9.68687915 265.58792652 9.68687915 265.58792652 5.56051636 262.03103638 C3.74587521 259.47358928 2.34149955 256.94920265 0.98905945 254.12442017 C0.31544373 253.10767212 -0.358172 252.09092407 -1.05220032 251.04336548 C-1.86902283 249.76090942 -1.86902283 249.76090942 -2.7023468 248.45254517 C-3.32963684 247.47003784 -3.95692688 246.48753052 -4.60322571 245.47525024 C-5.25339661 244.45197632 -5.9035675 243.42870239 -6.57344055 242.37442017 C-7.26743958 241.28604858 -7.9614386 240.197677 -8.6764679 239.07632446 C-10.79012715 235.76039809 -12.90076075 232.44256156 -15.01094055 229.12442017 C-16.23084887 227.20896402 -17.45089361 225.29359474 -18.6710968 223.37832642 C-22.69098758 217.06649624 -26.70548034 210.75123843 -30.71992493 204.4359436 C-37.46768955 193.82187143 -44.22781218 183.21593482 -51.01094055 172.62442017 C-57.77062133 162.06951774 -64.5073508 151.50023446 -71.23164368 140.92276001 C-74.44820528 135.86400191 -77.66725542 130.8068273 -80.88594055 125.74942017 C-82.07084645 123.8874474 -83.25574326 122.02546886 -84.44062805 120.16348267 C-84.93804504 119.38182739 -85.43546204 118.60017212 -85.94795227 117.79483032 C-86.2987384 117.24359497 -86.64952454 116.69235962 -87.01094055 116.12442017 C-84.0429989 110.68795013 -80.67879927 105.73492827 -77.01094055 100.74942017 C-75.84481007 99.14971779 -74.67946333 97.54944382 -73.5148468 95.94863892 C-72.9284845 95.14345825 -72.34212219 94.33827759 -71.73799133 93.50869751 C-69.11059462 89.88144895 -66.52627706 86.22448775 -63.94844055 82.56192017 C-63.45722717 81.86461792 -62.96601379 81.16731567 -62.45991516 80.44888306 C-60.97607759 78.34132246 -59.493314 76.23301078 -58.01094055 74.12442017 C-51.93604113 65.4832266 -45.83751677 56.86281918 -39.63594055 48.31192017 C-35.02971135 41.96014346 -30.49754829 35.56121337 -26.01094055 29.12442017 C-21.29280151 22.35661404 -16.52823843 15.6255724 -11.69844055 8.93692017 C-11.14092102 8.1641272 -10.58340149 7.39133423 -10.00898743 6.59512329 C-5.24082901 0.01109622 -5.24082901 0.01109622 0 0 Z " fill="#FDFDFC" transform="translate(1771.0109405517578,1237.8755798339844)"/>
<path d="M0 0 C10.663125 -0.0825 21.32625 -0.165 32.3125 -0.25 C35.65802002 -0.28641602 39.00354004 -0.32283203 42.45043945 -0.36035156 C45.12971354 -0.3720442 47.80899479 -0.38223466 50.48828125 -0.390625 C51.16940475 -0.40107849 51.85052826 -0.41153198 52.55229187 -0.42230225 C65.2614279 -0.60731131 75.29615374 1.43171022 85 10 C85.60585938 10.52464844 86.21171875 11.04929687 86.8359375 11.58984375 C96.76491827 20.80341761 102.51400129 34.14808212 103.4140625 47.609375 C103.88758337 61.69662091 101.55166312 74.31940138 92.06640625 85.22265625 C83.51216174 93.61994214 72.07706258 97.13573835 60.28198242 97.11352539 C59.61726331 97.11364593 58.95254419 97.11376646 58.26768208 97.11389065 C56.1302428 97.11314824 53.99289229 97.10555083 51.85546875 97.09765625 C50.54340454 97.09664917 49.23134033 97.09564209 47.8795166 97.09460449 C42.98216883 97.08937576 38.08483353 97.07541449 33.1875 97.0625 C22.235625 97.041875 11.28375 97.02125 0 97 C0 64.99 0 32.98 0 0 Z " fill="#DE4A09" transform="translate(836,1351)"/>
<path d="M0 0 C10.51875 -0.0825 21.0375 -0.165 31.875 -0.25 C35.17741699 -0.28641602 38.47983398 -0.32283203 41.88232422 -0.36035156 C44.52310538 -0.37204273 47.16389379 -0.38223354 49.8046875 -0.390625 C50.47766876 -0.40107849 51.15065002 -0.41153198 51.84402466 -0.42230225 C64.72069655 -0.61204966 73.39853854 1.49324104 82.80078125 10.51171875 C90.91079514 19.68770249 92.58210974 31.26551616 92.375 43.1484375 C90.98322496 57.44312693 85.35114757 70.66187548 74.7578125 80.56640625 C68.53522383 85.64127301 62.77354431 87.12996593 54.83276367 87.11352539 C53.59490112 87.11340454 52.35703857 87.11328369 51.08166504 87.11315918 C49.14438538 87.10548523 49.14438538 87.10548523 47.16796875 87.09765625 C45.97385376 87.09664917 44.77973877 87.09564209 43.54943848 87.09460449 C39.09544919 87.08937863 34.64147362 87.07541736 30.1875 87.0625 C15.2446875 87.0315625 15.2446875 87.0315625 0 87 C0 58.29 0 29.58 0 0 Z " fill="#DE4C0B" transform="translate(835,1218)"/>
<path d="M0 0 C2.33301013 0.66779683 4.66629913 1.33462106 7 2 C7.24844463 8.24360454 7.4292204 14.48429541 7.54931641 20.73168945 C7.59940377 22.85329332 7.66749899 24.97455545 7.75439453 27.0949707 C8.45580177 44.6590332 8.45580177 44.6590332 4.95581055 50.28710938 C2.42339935 52.59749638 -0.02792843 54.30625377 -3 56 C-4.13203337 56.85627777 -5.25725732 57.72174458 -6.37109375 58.6015625 C-23.24568057 69.73664017 -43.16587413 76.15758745 -63.45703125 72.3515625 C-72.81224288 69.54139623 -80.03662789 64.55080648 -85.02734375 56.08984375 C-89.76070451 45.91977144 -88.91676494 35.70209006 -85.328125 25.27734375 C-80.57904888 13.55830003 -75.58530098 5.18389162 -63.96484375 -0.19140625 C-44.96517553 -8.0103552 -19.2952477 -5.67873026 0 0 Z " fill="#DE4A0A" transform="translate(1195,1379)"/>
</svg>
